<svg xmlns="http://www.w3.org/2000/svg" xmlns:xlink="http://www.w3.org/1999/xlink"><symbol id="social-facebook" viewBox="0 0 24 24">
<path d="M17.563 1.00458L14.7857 1C11.6655 1 9.64916 3.12509 9.64916 6.41423V8.91055H6.85674C6.61544 8.91055 6.42004 9.1115 6.42004 9.35937V12.9763C6.42004 13.2241 6.61567 13.4249 6.85674 13.4249H9.64916V22.5514C9.64916 22.7993 9.84455 23 10.0859 23H13.7292C13.9705 23 14.1659 22.799 14.1659 22.5514V13.4249H17.4308C17.6721 13.4249 17.8675 13.2241 17.8675 12.9763L17.8689 9.35937C17.8689 9.24036 17.8228 9.12638 17.741 9.04215C17.6592 8.95793 17.5478 8.91055 17.432 8.91055H14.1659V6.79439C14.1659 5.77727 14.4018 5.26094 15.6916 5.26094L17.5625 5.26025C17.8036 5.26025 17.999 5.0593 17.999 4.81166V1.45317C17.999 1.20576 17.8038 1.00504 17.563 1.00458Z" fill="currentColor"/>
</symbol><symbol id="social-instagram" viewBox="0 0 24 24">
<path fill-rule="evenodd" clip-rule="evenodd" d="M2 12C2 7.80863 2 5.71294 3.05041 4.26718C3.38964 3.80026 3.80026 3.38964 4.26718 3.05041C5.71294 2 7.80863 2 12 2C16.1914 2 18.2871 2 19.7328 3.05041C20.1997 3.38964 20.6104 3.80026 20.9496 4.26718C22 5.71294 22 7.80863 22 12C22 16.1914 22 18.2871 20.9496 19.7328C20.6104 20.1997 20.1997 20.6104 19.7328 20.9496C18.2871 22 16.1914 22 12 22C7.80863 22 5.71294 22 4.26718 20.9496C3.80026 20.6104 3.38964 20.1997 3.05041 19.7328C2 18.2871 2 16.1914 2 12ZM12 6.70588C9.07632 6.70588 6.70588 9.07632 6.70588 12C6.70588 14.9237 9.07632 17.2941 12 17.2941C14.9237 17.2941 17.2941 14.9237 17.2941 12C17.2941 9.07632 14.9237 6.70588 12 6.70588ZM12 15.3088C10.1762 15.3088 8.69118 13.8238 8.69118 12C8.69118 10.1749 10.1762 8.69118 12 8.69118C13.8238 8.69118 15.3088 10.1749 15.3088 12C15.3088 13.8238 13.8238 15.3088 12 15.3088ZM18.3966 6.30883C18.3966 6.69844 18.0808 7.01427 17.6912 7.01427C17.3016 7.01427 16.9857 6.69844 16.9857 6.30883C16.9857 5.91923 17.3016 5.60339 17.6912 5.60339C18.0808 5.60339 18.3966 5.91923 18.3966 6.30883Z" fill="currentColor"/>
</symbol><symbol id="social-youtube" viewBox="0 0 24 24">
<path fill-rule="evenodd" clip-rule="evenodd" d="M21.3903 4.11407C22.4182 4.39093 23.2288 5.20135 23.5055 6.22948C24.0197 8.1074 23.9999 12.0218 23.9999 12.0218C23.9999 12.0218 23.9999 15.9163 23.5057 17.7944C23.2288 18.8223 22.4184 19.6329 21.3903 19.9096C19.5122 20.404 12 20.404 12 20.404C12 20.404 4.50731 20.404 2.60961 19.89C1.58148 19.6131 0.771054 18.8025 0.4942 17.7746C0 15.9163 0 12.002 0 12.002C0 12.002 0 8.1074 0.4942 6.22948C0.770871 5.20153 1.60125 4.37115 2.60943 4.09448C4.48753 3.6001 11.9998 3.6001 11.9998 3.6001C11.9998 3.6001 19.5122 3.6001 21.3903 4.11407ZM15.8549 12.0021L9.60788 15.6001V8.40404L15.8549 12.0021Z" fill="currentColor"/>
</symbol></svg>